<?xml version="1.0" encoding="utf-8"?>
<!-- Generator: Adobe Illustrator 24.0.1, SVG Export Plug-In . SVG Version: 6.00 Build 0)  -->
<svg version="1.1" id="Layer_1" xmlns="http://www.w3.org/2000/svg" xmlns:xlink="http://www.w3.org/1999/xlink" x="0px" y="0px"
	 viewBox="0 0 32 32" style="enable-background:new 0 0 32 32;" xml:space="preserve">
<style type="text/css">
	.st0{fill:#FFFFFF;}
	.st1{fill:#0092AC;}
	.st2{fill:#0092AC;stroke:#0092AC;stroke-width:0.25;stroke-miterlimit:10;}
	.st3{fill:#DDDDDD;}
</style>
<g>
	<circle class="st0" cx="16" cy="16" r="16"/>
	<path class="st1" d="M16,1c8.271,0,15,6.729,15,15s-6.729,15-15,15S1,24.271,1,16S7.729,1,16,1 M16,0C7.163,0,0,7.163,0,16
		c0,8.837,7.163,16,16,16s16-7.163,16-16C32,7.163,24.837,0,16,0L16,0z"/>
</g>
<path class="st1" d="M25.878,13.727l-0.036-0.009l0.007-0.016l-0.01-0.056l-0.025-0.039l0.024-0.06l0.033-0.03l-0.005-0.031
	l-0.04-0.001l-0.01-0.019l0.015-0.027l0.004-0.053l0.018-0.048l0.036-0.056l-0.024-0.015l-0.036,0.003l-0.072-0.027l-0.054-0.04
	l0.005,0.025l-0.016-0.002l-0.046,0.047l0.009,0.01l-0.015,0.03l-0.008-0.007l-0.057,0.06l-0.094,0.012l-0.006,0.018l-0.018-0.017
	l-0.094,0.015l-0.055,0.047l-0.141,0.028l-0.028,0l-0.029-0.018l-0.096,0.007l-0.084,0.044l-0.079-0.004l-0.043,0.015l-0.057-0.027
	l-0.061,0.013l-0.182,0.12l-0.081,0.01l-0.061-0.03l-0.03,0.011l-0.075,0.004l-0.018-0.018l-0.036,0.001l-0.1,0.085l-0.047,0.001
	l-0.079,0.051l-0.027,0.034l-0.081,0.011l-0.069-0.018l-0.072-0.07l-0.029-0.009l-0.019-0.044l-0.184-0.217l-0.018-0.003
	l-0.028-0.063l-0.083,0.001l-0.047,0.02l-0.014-0.003l-0.02-0.027h0.051l0.03-0.048l0.041-0.001l0.056-0.067l0.034-0.015
	l-0.011-0.103l0.012-0.04h-0.027l-0.063-0.066l0.001-0.025l-0.019-0.011l-0.014-0.026l-0.027,0.026l-0.029-0.016h-0.028
	l-0.023-0.053l0.012-0.02l-0.048-0.066l-0.035-0.01l-0.049-0.13l-0.013-0.02l-0.007,0.004c-1.533,0.799-4.255,0.792-5.272,0.399
	c-0.997-0.386-4.282,0.046-6.047,0.278c-0.384,0.05-0.687,0.09-0.885,0.111c-0.798,0.084-1.928-0.507-2.603-0.86
	c-0.266-0.139-0.476-0.249-0.575-0.271c-0.243-0.054-1.34,0.143-1.972,0.265L5.76,12.584l0.037,0.025l-0.036,0.028l0.025,0.084
	l0.083,0.044l0.038-0.011l-0.018,0.019l-0.073,0.003l-0.064-0.087l-0.064,0.069l0.036,0.049v0.09l-0.031,0.036l0.024,0.037
	l0.005-0.003L5.756,13l-0.002,0.059l0.028,0.057l0.103,0.005l0.019,0.002L5.86,13.158l0.063,0.067l0.059,0.005l0.015,0.033
	l0.041,0.009l0.078-0.03l0.068-0.016l0.066,0.04l-0.012,0.01l-0.162,0.003l0.029,0.044l0.05,0.007l0.021,0.024l-0.023,0.036
	l0.031,0.002l-0.073,0.086l0.137-0.016l-0.004,0.045l0.019,0.027l0.077-0.024l0.04,0.047l-0.027,0.117l0.072,0.105l0.07,0.005
	l0.05,0.021l0.027-0.041l0.031,0.015l-0.017,0.018l-0.002,0.057l0.032,0.034l0.06,0.002L6.7,13.985l0.083,0.046l0.042,0.036
	l-0.028,0.053L6.79,14.178l0.04,0.023l-0.039,0.078l0.026,0.059l0.055,0.009l0.028,0.094v0.074l0.072,0.084l0.055-0.022l0,0
	l-0.026,0.059l0.041,0.042l0.039,0.048l-0.019,0.043l0.075,0.02L7.3,14.877h0.112l0.035,0.021l-0.023,0.046l0.055,0.027l0.078,0.117
	l0.047,0.002l0.108,0.078l0.012,0.008l0.184,0.197l0.002,0.002l0.064,0.007l0.225,0.179l0.329,0.128l0.105-0.098h0.066l0.024-0.033
	l0.207-0.083l0.002-0.03l0.104-0.016l0.393-0.002l0.147-0.05l0.144,0.074l0.014-0.085l0.044-0.011l0.057,0.11l0.163,0.025
	l0.12,0.056l0.258-0.133l0.178-0.017l0.003,0l0.156-0.141l0.139-0.071l0.185-0.026l0.16-0.105l0.133,0.019l0.002,0L11.536,15
	l0.128,0.029l0.093-0.04l0.213,0.12l0.119,0.125l0.072,0.151l-0.002,0.104l0.042,0.023l0.033,0.109l0.078,0.076l0.112,0.034l0.002,0
	l0.291-0.017l0.056-0.037l0.042,0.019l0.137-0.053l0.044,0.021l0.085-0.018l0.026-0.079l0.049,0.054l0.025-0.016l0.042,0.022
	l0.04-0.023l0.035,0.189l0.055,0.008l0.029,0.036l0.087-0.04l0.038,0.066l-0.018,0.036l-0.001,0.096l0.054,0.082l0.011,0.118
	l-0.042,0.114l0.041,0.046l-0.057,0.061l0.023,0.056l-0.092,0.111l-0.078,0.159l0.077,0.042l-0.004,0.081l-0.069,0.011l0.065,0.112
	l0.002,0.003l0.062,0.016l-0.092,0.024l-0.043-0.047l-0.011,0.109l-0.013,0.172l-0.049,0.044l-0.077-0.028l-0.007,0.047l0.064,0.142
	l0.033,0.029v0.049l0.054,0.075v0.097l0.046,0.049l0.031,0.073l0.07,0.063l-0.021,0.016l0.088,0.1l0.133,0.114l0.027,0.071
	l0.107,0.055l0.009,0.053l0.054,0.023l0.069,0.072l0.021,0.042l0.088,0.059l0.002,0.056l0.047,0.055l-0.002,0.062l0.071,0.083
	l0.019,0.086l-0.034,0.068l0.035,0.084l0.088,0.002l0.023,0.019l-0.083,0.049l0.036,0.046v0.046l0.164,0.197l0.006,0.247
	l0.089,0.134l-0.013,0.119l-0.099,0.136l0.058,0.031v0.113l0.045,0.077v0.082l0.112,0.197l-0.004,0.053l0.036,0.048v0.274
	L14.543,21.1h-0.034l-0.133,0.108l-0.003,0.002l-0.004,0.077l-0.159,0.152l-0.003,0.003l-0.005,0.106l-0.027,0.025v0.256
	l-0.07,0.099l-0.019,0.122l-0.081,0.106l0,0.117l-0.013,0.103l0.004,0.153l-0.013,0.102L14,22.933l0,0.003l0.176,0.193l0.094,0.173
	l0.146,0.351l0.023,0.141l0.148,0.228v0.089l0.157,0.243v0.124l-0.04,0.018l0.044,0.169l0.009,0.245l0.088,0.251l-0.009,0.134
	l0.025,0.086l-0.045,0.03l0.04,0.054l0.022,0.168l0.042,0.024l0.023,0.047l-0.029,0.024V25.8l0.047,0.056l0.005,0.119l0,0.003
	l0.055,0.08l0.072,0.151l0.072,0.078l0.016,0.044l0.103,0.079l0.016,0.103l0.097,0.075l0.061,0.191l-0.002,0.089l0.063,0.176
	l0.038,0.185l0.083,0.117l0.002,0.067l0.085,0.153l-0.005,0.047l0.032,0.106l-0.017,0.094l-0.03,0.036h-0.019l-0.033-0.036
	l-0.04,0.041v0.085l0.046,0.087l0.053,0.052l0.05,0.096l-0.039,0.069l0.013,0.081l-0.021,0.053l0.004,0.071l0.057,0.045
	l-0.004-0.075l0.043-0.041l0.059,0.011l0.013,0.055l-0.031,0.027l0.044,0.021l0.042-0.022l0.047,0.026l0.004,0.087l0.039-0.025
	l0.143,0.072l0.004,0.002l0.028-0.015l0.036,0.014l0.02-0.049l0.052-0.01l0.062-0.076l0.072,0.017l0.015-0.024l0.067-0.004
	l0.089,0.034l0.048-0.022l0.073-0.005l0.019-0.027l0.031-0.027l0.032-0.01l0.038,0.019l0.016-0.059l0.041-0.02l0.154,0.001
	l0.071,0.041l0.056-0.022l0.001-0.022l0.081-0.017l0.133,0.036l0.039,0.031l0.151,0.036l0.027-0.028l-0.018-0.04l0.035-0.038
	l0.042,0.005l0.061,0.034l0.113-0.002l0.007-0.029l-0.043-0.039l0.027-0.049l0.071-0.023l0.086-0.003l0.032,0.026l0.071-0.007
	l0.068-0.044l0.119-0.034v-0.021l0.068-0.021l0.044-0.052l0.203-0.14l0.054-0.064l-0.001-0.013l0.033-0.006l0.312-0.329l0.012-0.023
	l0.029-0.001l0.054-0.069l0.057-0.026l0.016-0.09l0.093-0.095l0.125-0.223l0.043-0.089l0.056-0.002l0.036-0.072l0.001-0.032
	l0.057-0.071l0.035-0.073l0.07-0.048l0.029-0.037l0.061-0.03l0.017-0.026h0.025l0.084-0.106l0.015-0.058l0.041-0.053l0.03-0.124
	l0.044-0.095l0.01-0.1l0.038-0.123l-0.015-0.006l0.031-0.043l0.002-0.065l0.028-0.051l0.013-0.094l-0.003-0.04l-0.035,0.006
	l-0.012,0.05l-0.04-0.013l-0.013,0.017l0.002-0.028l-0.031-0.062l-0.007-0.01l0.018-0.013l0.034,0.001l0.022-0.082l0.036-0.03
	l0.023-0.038l0.075-0.02l0.099-0.101l0.26-0.055l0.193-0.094l0.113-0.127l0.018-0.082l0.038-0.062l-0.014-0.052l-0.044,0.028
	l-0.006-0.031h0.013l0.005-0.071l0.027-0.037v-0.054l0.037-0.105l-0.015-0.013l0.004-0.079l0.025-0.033l0.004-0.1l-0.016,0.003
	l-0.006-0.094l-0.048,0.111l-0.001,0.051l-0.006,0.001l-0.015-0.06l0.014-0.2l-0.035-0.07l-0.002-0.072l-0.034-0.062l-0.019-0.01
	l0.031-0.027l-0.003-0.05l-0.083-0.12l0.03-0.049l-0.009-0.048l0.021-0.03l0.003-0.056l-0.029-0.037v-0.016l0.02-0.003l0.06,0.042
	l0.032-0.045h0.07l0.058-0.046l-0.009-0.072l0.152-0.109l0.076-0.003l-0.003-0.047l0.021-0.007l0.037-0.033l0.002-0.031l0.119-0.075
	l0.011-0.047l0.035-0.01l0.009-0.057l0.012,0.03l0.044-0.021l0.078-0.099l0.001-0.026l0.02,0.015l0.124-0.087l0.09-0.045
	l0.003-0.013l0.067,0.009l0.195-0.111l0.015-0.043l0.023-0.002l0.201-0.116l0.005-0.003l-0.004-0.058l0.045-0.007l0.062-0.092
	v-0.038l0.061-0.084l0.041-0.008l0.007-0.069l0.034-0.051l-0.057-0.007l-0.009,0.008l-0.002-0.002l0.035-0.038h0.041l0.012-0.042
	l-0.016-0.024l0.025-0.013l0.033-0.051l-0.014-0.13l-0.021-0.017l-0.058-0.003l-0.011-0.017l0.001-0.008l0.046-0.007l-0.001-0.153
	l-0.01-0.016l0.005,0l0.022-0.164l0-0.001l-0.011-0.081l0.031-0.033l-0.002-0.086l-0.017-0.019v-0.075l0.02-0.021l-0.036-0.071
	l-0.013-0.107l0.023-0.024l-0.006-0.026l-0.01-0.021l0.006-0.029l0.064-0.099l-0.017-0.015l0.014-0.035l0.012-0.08l-0.03-0.019
	v-0.03l-0.069-0.062l-0.077-0.012l-0.1-0.104l0.009-0.046l-0.03-0.097l-0.026-0.034l0.03-0.052l-0.038-0.035l-0.013-0.061
	l-0.013-0.029l0.016-0.005l-0.035-0.091l-0.009-0.066l0.039-0.034l0.009-0.082l-0.045-0.047l-0.005-0.113l0.017-0.072l0.029-0.02
	l0.028,0.009l0.022-0.048l-0.043-0.128l-0.042,0.007l-0.06-0.073l-0.081-0.076l-0.003-0.067l0.049-0.132l0.063-0.21l0.021-0.033
	l-0.006-0.055l-0.004-0.005l0.019,0.001l0.067-0.03l0.109-0.171l0.044-0.101l0.001-0.073l0.047-0.062l0.053-0.088l-0.021-0.018
	l0.002-0.031l0.041-0.05l0.006-0.021l0.031-0.011h0.091l0.055-0.082l0.109-0.041l-0.02-0.035l0.029-0.034l0.024-0.009l0.099-0.129
	l0.009-0.036l0.244-0.288l0.028-0.068l0.06-0.062l0.062-0.019l0.025-0.049l0.026-0.011l0.168-0.197l0.045-0.014l0.203-0.229
	l0.105-0.086l0.081-0.061l0.099-0.02l0.143-0.131l0.331-0.313l0.157-0.204l0.09-0.099l0.022-0.069l0.201-0.292l0.001-0.002
	l0.005-0.053l0.107-0.159l0.001-0.002l0.007-0.102l0.167-0.34l0.042-0.04l-0.032-0.049l0.004-0.03l0.061-0.07l0.024,0.005
	l0.047-0.063l0.069-0.157l0.104-0.156l-0.004-0.083l0.018-0.031l0.012-0.081l-0.022-0.04l0.039-0.072l0.021-0.006l0.031,0
	l0.008,0.016l0.034-0.02L25.878,13.727z M25.846,13.738l-0.014,0.002l0.009-0.02L25.846,13.738z M5.788,12.929l0.081,0.031
	l-0.047,0.031L5.795,12.98l-0.063-0.018L5.788,12.929z"/>
<polygon class="st2" points="6.993,14.653 6.961,14.645 6.949,14.669 6.956,14.697 6.996,14.724 7.022,14.726 7.017,14.683 "/>
<polygon class="st2" points="25.421,21.904 25.406,21.846 25.423,21.818 25.423,21.749 25.404,21.662 25.417,21.628 25.424,21.465 
	25.379,21.403 25.374,21.262 25.351,21.212 25.328,21.222 25.276,21.151 25.269,21.088 25.218,21.064 25.247,20.999 25.227,20.936 
	25.151,21.01 25.17,21.053 25.118,21.09 25.068,21.054 25.036,21.055 25.084,21.125 25.085,21.166 25.121,21.205 25.121,21.224 
	25.061,21.283 25.061,21.378 25.025,21.44 24.986,21.426 24.936,21.486 24.929,21.538 24.891,21.568 24.859,21.547 24.853,21.478 
	24.826,21.464 24.788,21.504 24.783,21.579 24.842,21.643 24.857,21.67 24.834,21.693 24.804,21.683 24.738,21.696 24.752,21.758 
	24.811,21.775 24.818,21.814 24.793,21.847 24.765,21.812 24.72,21.83 24.71,21.868 24.628,21.942 24.627,21.873 24.64,21.853 
	24.619,21.815 24.564,21.871 24.599,21.892 24.587,21.919 24.517,21.962 24.544,22.022 24.584,22.035 24.58,22.067 24.543,22.077 
	24.495,22.112 24.488,22.071 24.46,22.065 24.488,22.015 24.463,21.995 24.354,22.093 24.337,22.185 24.351,22.221 24.334,22.261 
	24.297,22.247 24.272,22.225 24.273,22.142 24.245,22.138 24.176,22.215 24.1,22.158 24.084,22.182 24.058,22.186 24.068,22.276 
	24.044,22.27 24.024,22.278 24.023,22.23 23.994,22.214 23.961,22.265 23.931,22.214 23.813,22.33 23.782,22.334 23.759,22.31 
	23.698,22.308 23.671,22.353 23.683,22.451 23.594,22.597 23.598,22.625 23.514,22.719 23.514,22.767 23.559,22.808 23.52,22.868 
	23.548,22.959 23.545,23.037 23.627,23.206 23.621,23.253 23.672,23.314 23.673,23.341 23.633,23.385 23.647,23.428 23.619,23.575 
	23.559,23.615 23.544,23.698 23.509,23.705 23.491,23.759 23.438,23.806 23.432,23.924 23.396,23.968 23.31,23.989 23.289,24.019 
	23.295,24.122 23.23,24.195 23.237,24.279 23.218,24.329 23.232,24.368 23.235,24.468 23.311,24.568 23.3,24.64 23.313,24.685 
	23.351,24.709 23.372,24.703 23.352,24.723 23.293,24.739 23.296,24.805 23.305,24.909 23.296,25.042 23.318,25.069 23.321,25.111 
	23.355,25.133 23.394,25.198 23.426,25.217 23.452,25.26 23.491,25.309 23.533,25.294 23.547,25.315 23.594,25.327 23.645,25.398 
	23.682,25.406 23.683,25.434 23.698,25.449 23.736,25.423 23.799,25.429 23.869,25.384 23.927,25.313 24.112,25.294 24.169,25.308 
	24.267,25.267 24.294,25.211 24.341,25.204 24.372,25.104 24.419,25.023 24.421,24.966 24.48,24.927 24.475,24.831 24.46,24.818 
	24.502,24.785 24.528,24.679 24.521,24.662 24.542,24.662 24.598,24.569 24.639,24.354 24.671,24.238 24.717,24.189 24.742,24.061 
	24.823,23.908 24.9,23.65 24.955,23.563 24.955,23.447 25.014,23.33 25.023,23.286 25.091,23.171 25.125,22.994 25.153,22.864 
	25.18,22.831 25.196,22.737 25.17,22.691 25.186,22.61 25.247,22.519 25.239,22.475 25.282,22.421 25.272,22.345 25.247,22.319 
	25.274,22.265 25.269,22.187 25.247,22.171 25.246,22.095 25.285,22.075 25.314,22.099 25.327,22.165 25.377,22.237 25.414,22.246 
	25.435,22.206 25.438,22.15 25.454,22.13 25.461,22.074 25.482,22.052 25.479,21.988 "/>
<g>
	<path class="st3" d="M7.751,12.324c0.351,0.078,2.069,1.249,3.181,1.132s5.718-0.859,6.928-0.39
		c0.998,0.386,3.72,0.413,5.279-0.399l-0.011-0.016l-0.003,0.019h-0.024l-0.043-0.056l-0.061-0.028l-0.043-0.08l-0.1-0.12
		l-0.018-0.034l-0.083-0.02l-0.028-0.037l-0.055-0.066l-0.038,0.014l-0.019-0.012l-0.044,0.006l-0.029,0.021l-0.035-0.037
		l-0.049-0.08l0.02-0.024l-0.054-0.082L22.4,12.045l-0.005,0.065l0.013-0.002l0.004,0.089l-0.051-0.014l-0.016-0.098l-0.025-0.068
		l-0.04-0.014v-0.029l-0.016-0.084l-0.022-0.007l-0.04-0.228l-0.124-0.349l-0.069-0.079h-0.003h-0.02v-0.043l-0.065-0.036
		l-0.061-0.002v-0.06l-0.13-0.094l-0.049-0.012l-0.053-0.108l-0.04-0.137l0.017-0.118L21.59,10.49l-0.072-0.228l-0.008-0.058
		l0.01-0.01l0.023,0.03l0.008,0.021l0.014-0.001l0.001-0.031l-0.057-0.073l-0.02-0.088l-0.012-0.018l0.001-0.013l-0.012-0.015
		l0.008-0.017l-0.016-0.024l0.007-0.029l0.004-0.027l0.001-0.006l-0.052-0.022L21.35,9.807l-0.018-0.039L21.27,9.749l-0.038-0.084
		l-0.036,0.018L21.14,9.68l-0.092-0.064l-0.046-0.165l0.011-0.044l-0.004-0.078L20.99,9.286l0.006-0.029l0.022,0.02l0.087,0.006
		l-0.034-0.039L21.044,9.24l-0.048-0.08l-0.019-0.016l-0.003,0.021l-0.034-0.043l-0.026-0.085l-0.118-0.185l-0.049-0.034
		l-0.013-0.089l-0.186-0.293l0.002-0.067l-0.031-0.053l-0.011-0.122l-0.031-0.041V8.117l-0.101-0.118l-0.005-0.046l0.011-0.05
		l-0.025-0.051l-0.173-0.156l-0.013-0.051l-0.11-0.139V7.434l-0.063-0.086l0.007-0.043l-0.004-0.043l0.013-0.022l0.011,0.019h0.029
		l0.02,0.082l0.027,0.034l0.007,0.041l0.115,0.103v0.062l0.029,0.063l0.079,0.038l0.018,0.06l0.141,0.161l0.079,0.046l0.009,0.019
		l0.011-0.039l0.041-0.041l0.022-0.113l-0.027-0.029l0.036-0.096l0.007-0.067l0.045-0.175l0.011-0.019l-0.038-0.108l0.026-0.077
		l-0.065-0.166l-0.084-0.136l-0.031-0.117L20.47,6.693l-0.033-0.016l-0.038,0.055l-0.081,0.034l-0.189-0.034l-0.148,0.043
		l-0.108-0.082L19.86,6.748l0.04,0.065l-0.002,0.041l-0.04-0.065l-0.061-0.036l-0.014-0.055l0.029-0.014l-0.025-0.026l-0.049,0.007
		l-0.061-0.022l-0.101-0.029l-0.016,0.019l0.043,0.01l0.009,0.022l-0.056,0.007L19.5,6.664l-0.065,0.029l-0.02-0.022l0.001-0.015
		l0.057-0.007l0.047-0.022l-0.059,0.008l-0.084,0.002l-0.036,0.028l-0.079,0.046l-0.038,0.021L19.148,6.76l-0.063,0.065
		l-0.011,0.029h-0.099l-0.108-0.072l-0.07-0.007l-0.101,0.007l-0.085-0.058h-0.034l-0.036,0.024l-0.083-0.063l-0.096-0.021
		l-0.231-0.019l-0.115-0.041l-0.148,0.007l-0.029,0.01l0,0l-0.027-0.089l-0.043-0.05l-0.054-0.01l-0.054,0.01l-0.2-0.026
		l-0.04-0.038l-0.079-0.007l-0.105-0.031l-0.023-0.036l0.023-0.01l-0.002-0.038L17.11,6.22h-0.065l-0.103-0.029l-0.025-0.015
		l-0.031,0.029l-0.063-0.034h-0.022l-0.092,0.05l-0.146,0.015l-0.126,0.065l-0.072,0.074l-0.018,0.087l-0.038,0.031L16.3,6.657
		l0.054,0.089l0.036,0.127l-0.025,0.072l-0.077,0.084l-0.01,0.03L16.177,7.15l-0.062,0.025l-0.13-0.055l-0.114-0.1l-0.09-0.078
		l-0.138-0.076l-0.22-0.098l-0.096-0.012l-0.031,0.019h-0.115l-0.099-0.053l-0.092-0.19l0.002-0.098L14.92,6.328l-0.191-0.029
		l-0.101-0.07l-0.164-0.005l-0.092-0.038l-0.209,0.041l-0.146-0.034l-0.056-0.058l-0.068-0.014l-0.035-0.007l-0.088-0.058
		l-0.009-0.034L13.76,5.977l-0.045-0.026l-0.018,0.014l0.004,0.024l-0.022,0.019l-0.04-0.019l-0.013-0.048l-0.043,0.01l-0.094-0.07
		l-0.047-0.092l0.029-0.094l0.148-0.11l0.085-0.091l0.022-0.029l-0.025-0.036l0.031-0.036l-0.011-0.046l-0.022-0.017l0.002-0.103
		l-0.087-0.036l-0.072-0.103l0.013-0.084l0.072-0.053l0.004-0.058L13.69,4.8V4.737l-0.027-0.021l-0.105,0.103L13.522,4.86
		L13.493,4.84l-0.045-0.108L13.418,4.72l0.007-0.055l-0.038-0.036l-0.065,0.014L13.32,4.684l-0.031-0.046L13.21,4.656l-0.108,0.058
		l-0.076,0.072l0,0L13.01,4.766l-0.083,0.017l-0.045-0.01l-0.126,0.038l-0.065-0.06L12.61,4.72l-0.002,0.034l-0.052,0.053
		l-0.101-0.012l-0.007-0.05l-0.043-0.034l-0.07,0.017l-0.004,0.044l-0.061,0.012l-0.027,0.048l-0.038-0.017h-0.047l-0.061,0.051
		h-0.067L11.993,4.8l-0.081-0.005l-0.036-0.012l-0.079,0.014l-0.063-0.01l-0.029,0.007l-0.054-0.019l-0.038,0.01L11.585,4.85h-0.063
		l-0.056-0.024L11.39,4.905l-0.045-0.003l-0.07-0.041l-0.063,0.024l-0.114,0.005l-0.065-0.009l-0.144,0.118l-0.083,0.012
		l-0.041,0.001l-0.07,0.047l-0.003,0.049L10.654,5.16h-0.033l-0.019-0.019L10.56,5.142l-0.031,0.024l-0.017,0.025l-0.084,0.006
		l-0.071,0.038L10.32,5.271L10.31,5.31l-0.057,0.066l-0.09,0.031l-0.08,0.004L10.04,5.413L9.873,5.398L9.836,5.358l-0.016-0.06
		L9.798,5.29L9.796,5.291L9.744,5.352l-0.095,0.02L9.554,5.345L9.504,5.341L9.442,5.376L9.352,5.39L9.287,5.376L9.206,5.282
		L9.173,5.256L9.16,5.206V5.17l0.011-0.018L9.153,5.128L9.096,5.149L9.071,5.174L9.024,5.169L8.968,5.236L8.955,5.408l-0.064,0.09
		l-0.013,0.13L8.839,5.711L8.704,5.846L8.672,5.848L8.607,5.897l-0.11,0.04L8.416,6.03L8.385,6.031L8.267,6.115L8.194,6.14
		L8.153,6.208L8.018,6.313l0.047,0.11L8.057,6.5L7.938,6.615L7.861,6.783l-0.005,0.07l0.049,0.106L7.868,7.076l0.025,0.026
		l0.034,0.046l-0.02,0.091L7.72,7.466L7.7,7.555L7.615,7.653L7.52,7.663L7.314,7.862L7.024,7.92L6.953,8.026L6.838,8.198v0.125
		L6.784,8.325L6.578,8.441l-0.02,0.063L6.477,8.554l0.025,0.082L6.32,8.919L6.308,9.01L6.169,9.15L6.126,9.174L6.052,9.347
		l0.007,0.048L5.94,9.563L5.936,9.594l0.036,0.029L5.92,9.645L5.826,9.83L5.79,9.839L5.747,9.887l0.004,0.079L5.72,10.034
		l0.006,0.105l0.001,0.013l-0.029,0.069l0.005,0.122l0.065-0.079l0.025,0.077l0.025,0.014l0.036-0.031l0.085,0.137L5.9,10.502
		l0.022,0.067l-0.02,0.108h-0.04l-0.034,0.027l0.085,0.139l0.058,0.329l-0.02,0.228l-0.072,0.108l-0.047,0.197l-0.016,0.13
		l-0.013,0.104l-0.076,0.149l-0.186,0.183l0.101,0.086l0.065,0.122l0.056,0.01v0.065l-0.025,0.005l0.044,0.03
		C6.442,12.462,7.512,12.271,7.751,12.324z"/>
</g>
</svg>
